<svg xmlns="http://www.w3.org/2000/svg" style="display:none;">
  <symbol id="icon-dashboard" viewBox="0 0 24 24" fill="none" stroke="currentColor" stroke-width="1.8" stroke-linecap="round" stroke-linejoin="round">
    <rect x="3" y="3" width="8" height="8" rx="2" />
    <rect x="13" y="3" width="8" height="5" rx="2" />
    <rect x="13" y="10" width="8" height="11" rx="2" />
    <rect x="3" y="13" width="8" height="8" rx="2" />
  </symbol>
  <symbol id="icon-appointment" viewBox="0 0 24 24" fill="none" stroke="currentColor" stroke-width="1.8" stroke-linecap="round" stroke-linejoin="round">
    <rect x="3" y="5" width="18" height="16" rx="2" />
    <path d="M16 3v4M8 3v4M3 10h18" />
  </symbol>
  <symbol id="icon-patient" viewBox="0 0 24 24" fill="none" stroke="currentColor" stroke-width="1.8" stroke-linecap="round" stroke-linejoin="round">
    <circle cx="12" cy="8" r="4" />
    <path d="M5 20c0-3.3 3.1-6 7-6s7 2.7 7 6" />
  </symbol>
  <symbol id="icon-billing" viewBox="0 0 24 24" fill="none" stroke="currentColor" stroke-width="1.8" stroke-linecap="round" stroke-linejoin="round">
    <path d="M6 3h12v18l-2-1.4L14 21l-2-1.4L10 21l-2-1.4L6 21V3Z" />
    <path d="M9 8h6M9 12h6M9 16h4" />
  </symbol>
  <symbol id="icon-rx" viewBox="0 0 24 24" fill="none" stroke="currentColor" stroke-width="1.8" stroke-linecap="round" stroke-linejoin="round">
    <path d="M7 4h6a4 4 0 1 1 0 8H7V4Z" />
    <path d="m7 12 10 8M12 12l-5 8" />
  </symbol>
  <symbol id="icon-alert" viewBox="0 0 24 24" fill="none" stroke="currentColor" stroke-width="1.8" stroke-linecap="round" stroke-linejoin="round">
    <path d="M10.3 3.6 1.8 18a2 2 0 0 0 1.7 3h17a2 2 0 0 0 1.7-3L13.7 3.6a2 2 0 0 0-3.4 0Z" />
    <path d="M12 9v4M12 17h.01" />
  </symbol>
  <symbol id="icon-settings" viewBox="0 0 24 24" fill="none" stroke="currentColor" stroke-width="1.8" stroke-linecap="round" stroke-linejoin="round">
    <circle cx="12" cy="12" r="3" />
    <path d="M19.4 15a1.7 1.7 0 0 0 .3 1.8l.1.1a2 2 0 0 1 0 2.8 2 2 0 0 1-2.8 0l-.1-.1a1.7 1.7 0 0 0-1.8-.3 1.7 1.7 0 0 0-1 1.5V21a2 2 0 0 1-4 0v-.2a1.7 1.7 0 0 0-1-1.5 1.7 1.7 0 0 0-1.8.3l-.1.1a2 2 0 0 1-2.8 0 2 2 0 0 1 0-2.8l.1-.1a1.7 1.7 0 0 0 .3-1.8 1.7 1.7 0 0 0-1.5-1H3a2 2 0 0 1 0-4h.2a1.7 1.7 0 0 0 1.5-1 1.7 1.7 0 0 0-.3-1.8l-.1-.1a2 2 0 0 1 0-2.8 2 2 0 0 1 2.8 0l.1.1a1.7 1.7 0 0 0 1.8.3H9a1.7 1.7 0 0 0 1-1.5V3a2 2 0 0 1 4 0v.2a1.7 1.7 0 0 0 1 1.5 1.7 1.7 0 0 0 1.8-.3l.1-.1a2 2 0 0 1 2.8 0 2 2 0 0 1 0 2.8l-.1.1a1.7 1.7 0 0 0-.3 1.8V9c.2.6.8 1 1.5 1h.2a2 2 0 0 1 0 4h-.2a1.7 1.7 0 0 0-1.5 1Z" />
  </symbol>
  <symbol id="icon-help" viewBox="0 0 24 24" fill="none" stroke="currentColor" stroke-width="1.8" stroke-linecap="round" stroke-linejoin="round">
    <circle cx="12" cy="12" r="9" />
    <path d="M9.5 9a2.5 2.5 0 0 1 5 0c0 1.9-2.5 2.2-2.5 4" />
    <path d="M12 17h.01" />
  </symbol>
</svg>
